<?xml version="1.0" encoding="utf-8"?>
<!-- Generator: Adobe Illustrator 17.1.0, SVG Export Plug-In . SVG Version: 6.00 Build 0)  -->
<!DOCTYPE svg PUBLIC "-//W3C//DTD SVG 1.1//EN" "http://www.w3.org/Graphics/SVG/1.1/DTD/svg11.dtd">
<svg version="1.1" id="Capa_1" xmlns="http://www.w3.org/2000/svg" xmlns:xlink="http://www.w3.org/1999/xlink" x="0px" y="0px"
	 viewBox="0 0 512 512" enable-background="new 0 0 512 512" xml:space="preserve">
<g>
	<g id="Chevron_Right_Circle">
		<path fill="#00304B" d="M256,0C114.6,0,0,114.6,0,256c0,141.4,114.6,256,256,256c141.4,0,256-114.6,256-256
			C512,114.6,397.4,0,256,0z M256,480C132.5,480,32,379.5,32,256S132.5,31.5,256,31.5s224,101,224,224.5S379.5,480,256,480z"/>
	</g>
</g>
<path fill="#00304B" d="M196.5,219.4v22.2h119v-22.2c19.3-8.9,32.1-22.7,32.1-41.2c0-34.9-45.9-53.2-91.5-53.2s-91.5,18.3-91.5,53.2
	C164.6,196.7,177.2,210.5,196.5,219.4z"/>
<path fill="#00304B" d="M365,282.6h-49.5v-26.3h-119v26.3h-49c-6.7,0-12.1,6.8-12.1,14.9v30.3c0,8.1,5.4,14.2,12.1,14.2H365
	c6.7,0,11.6-6.1,11.6-14.2v-30.3C376.6,289.4,371.7,282.6,365,282.6z"/>
<path fill="#00304B" d="M369.5,379.1c-5,3.2-12.3,2.6-16.3-1.3l-0.1,0c-1.7-1.6-3.8-2.4-5.8-2.4c0,0,0,0,0,0c-2.1,0-4.2,0.8-5.9,2.5
	c0,0-0.1-0.1-0.1-0.1c-6.1,5.9-14.8,9.3-23.8,9.3c0,0,0,0,0,0c-9,0-17.7-3.4-23.8-9.3l-0.1,0c-1.5-1.4-3.3-2.3-5.1-2.5
	c-0.2,0-0.4,0.1-0.6,0.1c0,0,0,0,0,0c-2.1,0-4.2,0.8-5.9,2.5c0,0,0-0.1-0.1-0.1c-6.1,5.9-14.8,9.3-23.8,9.3c0,0,0,0,0,0
	c-9,0-17.7-3.3-23.8-9.2l-0.1,0c-1.7-1.7-3.8-2.4-5.9-2.4c0,0,0,0,0,0c-2.1,0-4.2,0.8-5.9,2.5c-6.1,5.9-14.8,9.2-23.9,9.2
	c0,0,0,0,0,0c-9,0-17.7-3.3-23.8-9.2l-0.1,0c-1.7-1.7-3.8-2.4-5.9-2.4c0,0,0,0,0,0c-2.1,0-4.2,0.8-5.9,2.5
	c-4.1,3.9-11.4,4.4-16.3,1.2c-5-3.2-5.7-9-1.6-12.9c6.1-5.9,14.8-9.2,23.8-9.2c0,0,0,0,0,0c9,0,17.7,3.2,23.8,9.2l0.1-0.1
	c1.7,1.7,3.8,2.6,5.9,2.6c0,0,0,0,0,0c2.1,0,4.2-0.8,5.9-2.5c6.1-5.9,14.8-9.2,23.9-9.2c0,0,0,0,0,0c9,0,17.7,3.2,23.8,9.2l0.1-0.1
	c1.7,1.7,3.8,2.6,5.9,2.6c0,0,0,0,0,0c1.7,0,3.4-0.6,4.9-1.7c0.2-0.3,0.5-0.5,0.8-0.8c6.1-5.9,14.8-9.2,23.8-9.2c0,0,0,0,0,0
	c0.6,0,1.2-0.1,1.9-0.1c8.4,0.4,16.4,3.6,22.2,9.1l0.1,0.1c0.2,0.2,0.5,0.5,0.7,0.7c1.5,1.2,3.2,1.8,5,1.8c0,0,0,0,0,0
	c2.1,0,4.2-0.9,5.9-2.5c0,0,0.1,0,0.1,0c6.1-5.9,14.8-9.1,23.8-9.1c0,0,0,0,0,0c9,0,17.7,3.2,23.8,9.2l0.1,0
	C375.2,370,374.4,375.9,369.5,379.1z"/>
</svg>
