<?xml version="1.0" encoding="utf-8"?>
<!-- Generator: Adobe Illustrator 17.1.0, SVG Export Plug-In . SVG Version: 6.00 Build 0)  -->
<!DOCTYPE svg PUBLIC "-//W3C//DTD SVG 1.1//EN" "http://www.w3.org/Graphics/SVG/1.1/DTD/svg11.dtd">
<svg version="1.1" id="Capa_1" xmlns="http://www.w3.org/2000/svg" xmlns:xlink="http://www.w3.org/1999/xlink" x="0px" y="0px"
	 viewBox="0 0 512 512" enable-background="new 0 0 512 512" xml:space="preserve">
<g>
	<g id="Chevron_Right_Circle">
		<path fill="#00304B" d="M256,0C114.6,0,0,114.6,0,256c0,141.4,114.6,256,256,256c141.4,0,256-114.6,256-256
			C512,114.6,397.4,0,256,0z M256,480C132.5,480,32,379.5,32,256S132.5,31.5,256,31.5s224,101,224,224.5S379.5,480,256,480z"/>
	</g>
</g>
<g>
	<g>
		<path fill="#00304B" d="M402.3,172.6c-0.7-2.3-1.6-4.5-2.8-6.6c-5.7-9.8-16.2-15.7-28-15.7c-6.1,0-12.2,1.6-17.6,4.7l-0.1,0.1
			L296,191l-107.6-35.7c-15.9-5.3-33.3-3.5-47.8,4.9c-3.4,1.9-5.5,5.6-5.5,9.5c0,3.9,2.1,7.5,5.5,9.5l90.7,52.2l-58.9,37.3
			l-50.6-3.6c-3.1-0.2-6.2,0.5-9,2.1c-4.7,2.7-7.6,7.6-7.8,13c-0.2,5.4,2.3,10.5,6.8,13.6l22.3,15.3l10.4,17.9
			c1.9,3.7,5.3,6.6,9.4,7.8c1.5,0.5,3,0.7,4.6,0.7c2.7,0,5.5-0.7,7.9-2.1l0.1-0.1l228.9-142.5C401.5,186.9,404.4,179.5,402.3,172.6z
			"/>
	</g>
</g>
<g>
	<g>
		<path fill="#00304B" d="M394.2,365H113.7c-4.8,0-8.7,3.9-8.7,8.7c0,4.8,3.9,8.7,8.7,8.7h280.5c4.8,0,8.7-3.9,8.7-8.7
			C403,368.9,399.1,365,394.2,365z"/>
	</g>
</g>
</svg>
