<?xml version="1.0" encoding="utf-8"?>
<!-- Generator: Adobe Illustrator 17.1.0, SVG Export Plug-In . SVG Version: 6.00 Build 0)  -->
<!DOCTYPE svg PUBLIC "-//W3C//DTD SVG 1.1//EN" "http://www.w3.org/Graphics/SVG/1.1/DTD/svg11.dtd">
<svg version="1.1" id="Capa_1" xmlns="http://www.w3.org/2000/svg" xmlns:xlink="http://www.w3.org/1999/xlink" x="0px" y="0px"
	 viewBox="0 0 512 512" enable-background="new 0 0 512 512" xml:space="preserve">
<g>
	<g id="Chevron_Right_Circle">
		<path fill="#00304B" d="M256,0C114.6,0,0,114.6,0,256c0,141.4,114.6,256,256,256c141.4,0,256-114.6,256-256
			C512,114.6,397.4,0,256,0z M256,480C132.5,480,32,379.5,32,256S132.5,31.5,256,31.5s224,101,224,224.5S379.5,480,256,480z"/>
	</g>
</g>
<g>
	<path fill="#00304B" d="M337.8,337.8h17.3c5.3,0,9.6-4.3,9.6-9.6V143.6c0-13.2-10.7-24-24-24h-52.6v-13.7H227v13.7h-52.6
		c-13.2,0-24,10.7-24,24v184.6c0,5.3,4.3,9.6,9.6,9.6h17.3L108,391.1h44.5l54.3-53.3h101.5l54.3,53.3h44.5L337.8,337.8z
		 M308.3,307.6c0-8.1,6.6-14.7,14.7-14.7c8.1,0,14.7,6.6,14.7,14.7c0,8.1-6.6,14.7-14.7,14.7C314.8,322.3,308.3,315.7,308.3,307.6z
		 M193.1,322.3c-8.1,0-14.7-6.6-14.7-14.7s6.6-14.7,14.7-14.7c8.1,0,14.7,6.6,14.7,14.7C207.8,315.7,201.2,322.3,193.1,322.3z
		 M179,246.4c-2.6,0-4.8-2.1-4.8-4.8v-92.8c0-2.6,2.1-4.8,4.8-4.8h157c2.6,0,4.8,2.1,4.8,4.8v92.8c0,2.6-2.1,4.8-4.8,4.8L179,246.4
		L179,246.4z"/>
</g>
</svg>
