<?xml version="1.0" encoding="utf-8"?>
<!-- Generator: Adobe Illustrator 17.1.0, SVG Export Plug-In . SVG Version: 6.00 Build 0)  -->
<!DOCTYPE svg PUBLIC "-//W3C//DTD SVG 1.1//EN" "http://www.w3.org/Graphics/SVG/1.1/DTD/svg11.dtd">
<svg version="1.1" id="Capa_1" xmlns="http://www.w3.org/2000/svg" xmlns:xlink="http://www.w3.org/1999/xlink" x="0px" y="0px"
	 viewBox="0 0 512 512" enable-background="new 0 0 512 512" xml:space="preserve">
<g>
	<g id="Chevron_Right_Circle">
		<path fill="#00304B" d="M256,0C114.6,0,0,114.6,0,256c0,141.4,114.6,256,256,256c141.4,0,256-114.6,256-256
			C512,114.6,397.4,0,256,0z M256,480C132.5,480,32,379.5,32,256S132.5,31.5,256,31.5s224,101,224,224.5S379.5,480,256,480z"/>
	</g>
</g>
<path fill="#00304B" d="M215,330c10.2,5.3,21.6,8.4,33.1,8.9l35.7,74.9l2.1-82.9c9.3-4.6,17.5-10.9,24.4-18.8l44.1,15.6l-32.2-33.9
	c4.4-9.4,6.9-19.6,7.3-29.9l74.8-35.7l-82.9-2.1c-0.3-0.5-0.5-1.1-0.8-1.6l68.9-103.3l-101.9,70.3c-10.2-5.3-21.6-8.4-33.1-8.9
	l-35.7-74.9l-2.1,82.9c-9.3,4.6-17.5,10.9-24.4,18.8l-44.1-15.6l32.2,33.9c-4.4,9.4-6.9,19.6-7.3,29.9l-74.8,35.7l82.9,2.1
	c0.3,0.5,0.5,1.1,0.8,1.6l-65.3,98.2L215,330z M313,234.4c1.7,3.9,3,8,3.9,12.3c6.1,28.5-7,56.7-30.6,71.1
	c-6.3,3.9-13.4,6.8-21.1,8.4c-4.7,1-9.4,1.5-14,1.5c-2.9,0-5.8-0.2-8.6-0.6c-6.1-0.8-12-2.5-17.6-4.8l49.9-35.5L313,234.4z
	 M237.4,195.1c4.7-1,9.4-1.5,14-1.5c2.9,0,5.8,0.2,8.6,0.6c6.2,0.8,12.1,2.4,17.6,4.8L223,234.9L189.6,287c-1.7-3.9-3-8-3.9-12.3
	C178,238.4,201.2,202.8,237.4,195.1z"/>
</svg>
